<?xml version="1.0" encoding="UTF-8"?>
<svg xmlns="http://www.w3.org/2000/svg" xmlns:xlink="http://www.w3.org/1999/xlink" viewBox="0 0 24 24" width="24px" height="24px">
<g id="surface48264377">
<path style=" stroke:none;fill-rule:nonzero;fill:rgb(9.803922%,46.27451%,82.352942%);fill-opacity:1;" d="M 6 3 C 4.355469 3 3 4.355469 3 6 L 3 18 C 3 19.644531 4.355469 21 6 21 L 18 21 C 19.644531 21 21 19.644531 21 18 L 21 6 C 21 4.355469 19.644531 3 18 3 Z M 12 7 L 14 7 C 14 8.003906 15.472656 9 16 9 L 16 11 C 15.394531 11 14.667969 10.734375 14 10.285156 L 14 14 C 14 15.652344 12.652344 17 11 17 C 9.347656 17 8 15.652344 8 14 C 8 12.347656 9.347656 11 11 11 L 11 13 C 10.449219 13 10 13.449219 10 14 C 10 14.550781 10.449219 15 11 15 C 11.550781 15 12 14.550781 12 14 Z M 12 7 "/>
</g>
</svg>
